<svg width="20" height="20" viewBox="0 0 20 20" fill="none" xmlns="http://www.w3.org/2000/svg">
<path fill-rule="evenodd" clip-rule="evenodd" d="M5.49997 4C5.49997 9.799 10.201 14.5 16 14.5C16.426 14.5 16.847 14.474 17.26 14.425C16.5895 15.5223 15.6788 16.4532 14.5964 17.1476C13.5141 17.842 12.2882 18.2817 11.0113 18.4337C9.73438 18.5856 8.4396 18.4459 7.22449 18.025C6.00939 17.6041 4.90562 16.913 3.99632 16.0036C3.08702 15.0943 2.39588 13.9906 1.97497 12.7755C1.55405 11.5604 1.41432 10.2656 1.5663 8.98865C1.71828 7.71172 2.15801 6.48591 2.85238 5.40355C3.54674 4.32118 4.47764 3.41047 5.57497 2.74C5.52497 3.153 5.49997 3.573 5.49997 3.999V4ZM7.23197 1.96C7.07809 2.62908 7.0006 3.31345 7.00097 4C7.00063 5.35549 7.30647 6.69356 7.89567 7.9143C8.48487 9.13505 9.3422 10.2069 10.4037 11.05C11.4651 11.893 12.7033 12.4853 14.0257 12.7828C15.3482 13.0803 16.7208 13.0752 18.041 12.768L18.045 12.766C18.308 12.7046 18.5682 12.6319 18.825 12.548C19.218 12.418 19.625 12.758 19.495 13.15C19.3985 13.4399 19.2887 13.7252 19.166 14.005L19.162 14.015C18.3814 15.7949 17.0992 17.3088 15.4721 18.3717C13.845 19.4346 11.9435 20.0004 9.99997 20C7.70457 19.9985 5.47952 19.2076 3.6982 17.76C1.91688 16.3123 0.687691 14.296 0.216913 12.0494C-0.253864 9.80277 0.0624142 7.46261 1.11267 5.42158C2.16294 3.38055 3.88326 1.76287 5.98497 0.839998L5.99497 0.834998C6.27467 0.712327 6.55999 0.602873 6.84997 0.506998C7.24197 0.376998 7.58197 0.782998 7.45197 1.177C7.36758 1.43324 7.29484 1.69317 7.23397 1.956L7.23197 1.961V1.96Z" fill="#5C33CF"/>
</svg>
