<svg width="26" height="27" viewBox="0 0 26 27" fill="none" xmlns="http://www.w3.org/2000/svg">
<path d="M12.8 26.2261C10.2684 26.2261 7.79366 25.4755 5.68871 24.0693C3.58376 22.6631 1.94315 20.6644 0.974348 18.3259C0.00554602 15.9875 -0.247937 13.4143 0.245954 10.9318C0.739845 8.4493 1.95893 6.16898 3.74904 4.3792C5.53915 2.58942 7.81989 1.37057 10.3028 0.876768C12.7858 0.382969 15.3595 0.636404 17.6984 1.60503C20.0372 2.57365 22.0363 4.21395 23.4428 6.31851C24.8493 8.42307 25.6 10.8974 25.6 13.4285C25.5962 16.8215 24.2464 20.0744 21.8468 22.4736C19.4471 24.8728 16.1936 26.2223 12.8 26.2261ZM12.8 1.91063C10.264 1.91045 7.79885 2.74693 5.78683 4.29033C3.7748 5.83372 2.32838 7.99778 1.67189 10.4469C1.0154 12.8959 1.18554 15.4932 2.15592 17.8357C3.12629 20.1783 4.84267 22.1352 7.03885 23.403C9.23503 24.6709 11.7883 25.1787 14.3026 24.8478C16.8169 24.517 19.1517 23.3658 20.9449 21.573C22.7382 19.7801 23.8896 17.4458 24.2206 14.932C24.5517 12.4182 24.0438 9.86537 22.7758 7.66956C21.7638 5.91964 20.3094 4.46647 18.5585 3.45571C16.8076 2.44495 14.8218 1.91211 12.8 1.91063ZM13.44 19.8273H12.16C10.9723 19.8259 9.83353 19.3536 8.99366 18.5139C8.15379 17.6742 7.68136 16.5357 7.68001 15.3481C7.68001 15.1784 7.74743 15.0157 7.86746 14.8957C7.98748 14.7757 8.15027 14.7082 8.32001 14.7082C8.48974 14.7082 8.65253 14.7757 8.77255 14.8957C8.89258 15.0157 8.96 15.1784 8.96 15.3481C8.96109 16.1963 9.29858 17.0095 9.89846 17.6093C10.4983 18.209 11.3116 18.5464 12.16 18.5475H13.44C14.2883 18.5464 15.1015 18.209 15.7012 17.6092C16.3009 17.0094 16.6382 16.1962 16.639 15.3481C16.639 15.1783 16.7065 15.0154 16.8266 14.8953C16.9467 14.7752 17.1096 14.7077 17.2795 14.7077C17.4494 14.7077 17.6123 14.7752 17.7324 14.8953C17.8525 15.0154 17.92 15.1783 17.92 15.3481C17.9186 16.5357 17.4462 17.6742 16.6063 18.5139C15.7665 19.3536 14.6278 19.8259 13.44 19.8273ZM16.639 12.1487C16.3859 12.1485 16.1385 12.0733 15.9281 11.9325C15.7178 11.7918 15.5539 11.5919 15.4571 11.358C15.3604 11.1241 15.3352 10.8668 15.3847 10.6187C15.4342 10.3705 15.5562 10.1425 15.7353 9.96367C15.9143 9.7848 16.1424 9.66301 16.3907 9.61372C16.6389 9.56442 16.8962 9.58982 17.1301 9.68671C17.3639 9.7836 17.5638 9.94764 17.7044 10.1581C17.845 10.3685 17.92 10.6159 17.92 10.869C17.9197 11.2083 17.7848 11.5336 17.5448 11.7736C17.3048 12.0135 16.9794 12.1485 16.64 12.1487H16.639ZM8.95898 12.1487C8.70586 12.1485 8.45849 12.0733 8.24813 11.9325C8.03777 11.7918 7.87387 11.5919 7.77715 11.358C7.68042 11.1241 7.65522 10.8668 7.70473 10.6187C7.75423 10.3705 7.87622 10.1425 8.05527 9.96367C8.23432 9.7848 8.4624 9.66301 8.71067 9.61372C8.95893 9.56442 9.21625 9.58982 9.45008 9.68671C9.68391 9.7836 9.88375 9.94764 10.0244 10.1581C10.165 10.3685 10.24 10.6159 10.24 10.869C10.2397 11.2083 10.1048 11.5336 9.8648 11.7736C9.62481 12.0135 9.2994 12.1485 8.96 12.1487H8.95898Z" fill="#8F9BB3"/>
</svg>
